<svg xmlns="http://www.w3.org/2000/svg" width="40.509" height="40.503" viewBox="0 0 40.509 40.503">
  <g id="_006-candy" data-name="006-candy" transform="translate(0.254 0.255)">
    <path id="Path_1957" data-name="Path 1957" d="M38.641,7.927a1.717,1.717,0,0,1-.884-1.477,4.164,4.164,0,0,0-1.419-2.787,4.164,4.164,0,0,0-2.787-1.419,1.717,1.717,0,0,1-1.477-.884,3.312,3.312,0,0,0-4.6-.737c-2.268,1.684-3.018,4.414-3.22,6.622-.374-.055-.753-.093-1.14-.111a14.023,14.023,0,0,0-6.613,1.4,16.658,16.658,0,0,0-4.655,3.3c-.218.218-.435.447-.645.681A15.462,15.462,0,0,0,7.167,21.6a12.158,12.158,0,0,0,.089,2.639c-2.207.2-4.936.953-6.62,3.22a3.21,3.21,0,0,0-.6,2.419A3.293,3.293,0,0,0,1.373,32.06a1.717,1.717,0,0,1,.884,1.477,4.162,4.162,0,0,0,1.419,2.787,4.164,4.164,0,0,0,2.787,1.419,1.718,1.718,0,0,1,1.477.884A3.321,3.321,0,0,0,10.621,40a3.2,3.2,0,0,0,1.92-.634c2.268-1.684,3.018-4.415,3.22-6.622a13.429,13.429,0,0,0,1.723.125,14.282,14.282,0,0,0,6.443-1.614A17.018,17.018,0,0,0,29.9,26.14a14.337,14.337,0,0,0,2.856-10.391c2.208-.2,4.94-.952,6.625-3.221A3.309,3.309,0,0,0,38.641,7.927ZM11.155,14.416q.01.152.019.3.123,2.013.175,4.029c.028,1.087.042,2.187.04,3.291a.586.586,0,1,0,1.172,0c0-2.229-.055-4.441-.169-6.573q-.064-1.179-.152-2.357c.143-.154.288-.305.434-.451a15.622,15.622,0,0,1,3.593-2.7q.043.379.084.761c.332,3.137.5,6.284.553,9.437.049,2.859-.02,5.721-.175,8.576-.052.971-.117,1.948-.191,2.917a9.359,9.359,0,0,1-4.241-1.4c.012-.195.022-.39.034-.585q.133-2.266.19-4.536s0,0,0-.006a.586.586,0,0,0-.571-.594h-.005a.6.6,0,0,0-.6.572q-.037,1.456-.1,2.911c-.019.416-.068,1.333-.071,1.377l-.009-.008a8.542,8.542,0,0,1-2.008-2.775C7.543,23.038,8.258,18.3,11.155,14.416Zm.688,24.008A2.128,2.128,0,0,1,8.89,37.94a2.84,2.84,0,0,0-2.278-1.359A3.8,3.8,0,0,1,3.42,33.388a2.84,2.84,0,0,0-1.359-2.277,2.126,2.126,0,0,1-.484-2.953c1.2-1.617,3.187-2.545,5.91-2.763a10.449,10.449,0,0,0,.381,1.184,9.646,9.646,0,0,0-3.45,2.126.586.586,0,0,0,.036.828.594.594,0,0,0,.828-.036,8.626,8.626,0,0,1,3.075-1.851A9.65,9.65,0,0,0,9.4,29.214c.084.1.169.205.258.3L6.643,32.53a.586.586,0,0,0,.829.829l3.013-3.013a9.532,9.532,0,0,0,.872.689,11.583,11.583,0,0,0,1,.609A8.782,8.782,0,0,1,10.5,34.72a.586.586,0,0,0,.794.862,9.646,9.646,0,0,0,2.126-3.451,10.456,10.456,0,0,0,1.185.381C14.389,35.235,13.46,37.223,11.843,38.423Zm15.5-11.1A15.762,15.762,0,0,1,24.312,29.7c.229-3.922.309-7.861.166-11.788q-.066-1.979-.2-3.955a.586.586,0,1,0-1.169.079A121.928,121.928,0,0,1,23.3,26.244q-.062,1.889-.178,3.776l-.021.337a13.089,13.089,0,0,1-5.385,1.337c.006-.078.011-.156.017-.234q.345-4.648.36-9.312a108.155,108.155,0,0,0-.681-12.513c-.008-.072-.016-.145-.025-.217a12.9,12.9,0,0,1,5.181-1.125c.011.089.022.179.033.268.128,1.052.235,2.106.332,3.16a.6.6,0,0,0,.636.532.586.586,0,0,0,.532-.636c-.093-1.038-.208-2.072-.325-3.107-.006-.049-.012-.1-.017-.149q.458.052.9.144a8.9,8.9,0,0,1,3.6,1.607l.006,0c.009.084.019.168.028.252q.361,3.307.5,6.632c.123,2.862.133,5.729.048,8.593A16.1,16.1,0,0,1,27.341,27.327Zm2.718-3.63c0-.091,0-.182,0-.274.027-2.182-.007-4.386-.1-6.566q-.118-2.689-.375-5.37c0-.045-.008-.089-.012-.134l.072.087A8.541,8.541,0,0,1,31.113,14,11.968,11.968,0,0,1,30.058,23.7Zm8.379-11.867c-1.2,1.617-3.188,2.545-5.912,2.763a10.378,10.378,0,0,0-.383-1.183A9.645,9.645,0,0,0,35.6,11.281a.586.586,0,0,0-.862-.794,8.783,8.783,0,0,1-3.079,1.853c-.035-.066-.341-.589-.463-.783a9.544,9.544,0,0,0-.813-1.068l-.018-.02,3.011-3.011a.586.586,0,1,0-.829-.829L29.531,9.64a9.623,9.623,0,0,0-1.215-.915c-.211-.135-.432-.264-.656-.383a8.8,8.8,0,0,1,1.852-3.075.586.586,0,0,0-.794-.862,9.646,9.646,0,0,0-2.126,3.451c0-.01-.506-.181-.524-.187-.218-.071-.439-.136-.661-.193.218-2.724,1.146-4.711,2.763-5.912a2.126,2.126,0,0,1,2.953.483A2.841,2.841,0,0,0,33.4,3.407a3.047,3.047,0,0,1,2.108,1.085A3.048,3.048,0,0,1,36.594,6.6a2.841,2.841,0,0,0,1.359,2.277A2.131,2.131,0,0,1,38.437,11.829Zm0,0" transform="translate(-0.001 -0.001)" fill="rgba(0,0,0,0.84)" stroke="#fff" stroke-width="0.5"/>
  </g>
</svg>
