<svg xmlns="http://www.w3.org/2000/svg" width="63.921" height="34.5" viewBox="0 0 63.921 34.5">
  <g id="Group_8591" data-name="Group 8591" transform="translate(-78 -769.25)">
    <line id="Line_779" data-name="Line 779" x1="63.921" transform="translate(78 803)" fill="none" stroke="rgba(0,0,0,0.84)" stroke-width="1.5"/>
    <g id="Group_8469" data-name="Group 8469" transform="translate(86.716 770)">
      <g id="Group_8472" data-name="Group 8472" transform="translate(0 0)">
        <path id="Union_398" data-name="Union 398" d="M0,4.681A4.682,4.682,0,0,1,4.681,0l.14,0c.926-.016,6.164.231,6.771,7.784.009.006-.37-.073-.961-.152a16.157,16.157,0,0,0-2.2-.152A4.682,4.682,0,0,1,0,4.681Z" transform="translate(0 0)" fill="none" stroke="rgba(0,0,0,0.84)" stroke-width="1.5"/>
        <g id="Path_1959" data-name="Path 1959" transform="translate(5.968 10.233)" fill="none">
          <path d="M-3.632,5.531C-3.607,2.336.943.808.962.729c3.467,0,1.485,12.6,1,16.962-.055.121-3.932,0-3.932,0S-2.046,7.651-3.632,5.531Z" stroke="none"/>
          <path d="M 0.9537139534950256 2.387416839599609 C -1.208645582199097 3.413400650024414 -1.925549983978271 4.418423652648926 -2.091271877288818 5.179768562316895 C -1.606043577194214 6.119375228881836 -1.047622084617615 7.983820915222168 -0.7101927995681763 12.28911018371582 C -0.5916908979415894 13.80113220214844 -0.5310573577880859 15.22375869750977 -0.5002304315567017 16.22806930541992 C -0.131432056427002 16.23553657531738 0.2635329961776733 16.24187850952148 0.6246408224105835 16.24430084228516 C 0.6422898173332214 16.10052108764648 0.6605926752090454 15.95203113555908 0.679497241973877 15.79866027832031 C 0.9694372415542603 13.44631004333496 1.366517305374146 10.22465038299561 1.450337171554565 7.370950698852539 C 1.547434687614441 4.065167427062988 1.16896653175354 2.821285247802734 0.9537139534950256 2.387416839599609 M 0.9623972177505493 0.7290000915527344 C 4.429537296295166 0.7290000915527344 2.447627305984497 13.3331298828125 1.963377237319946 17.6914005279541 C 1.944881677627563 17.73185729980469 1.501735806465149 17.74534606933594 0.9192194938659668 17.74534606933594 C -0.2459198236465454 17.74534606933594 -1.968962669372559 17.6914005279541 -1.968962669372559 17.6914005279541 C -1.968962669372559 17.6914005279541 -2.045572757720947 7.651360511779785 -3.632322788238525 5.53085994720459 C -3.60679292678833 2.335929870605469 0.9431672692298889 0.8081398010253906 0.9623972177505493 0.7290000915527344 Z" stroke="none" fill="rgba(0,0,0,0.84)"/>
        </g>
      </g>
      <g id="Group_8473" data-name="Group 8473" transform="translate(16.26 0.786)">
        <path id="Union_399" data-name="Union 399" d="M0,5.327c0-.112,0-.223.012-.333C0,4.89,0,4.786,0,4.681,0,2.1,2.386,0,5.327,0s5.326,2.1,5.326,4.681A4.651,4.651,0,0,1,7.776,8.839,4.681,4.681,0,0,1,0,5.327Z" transform="translate(2.759 0) rotate(16)" fill="none" stroke="rgba(0,0,0,0.84)" stroke-width="1.5"/>
        <g id="Path_1962" data-name="Path 1962" transform="translate(7.142 12.154)" fill="none">
          <path d="M-3.632,4.7C-3.607,2.059.943.795.962.729c3.467,0,1.485,10.434,1,14.042-.055.1-3.932,0-3.932,0S-2.046,6.459-3.632,4.7Z" stroke="none"/>
          <path d="M 1.005401611328125 2.318493843078613 C 0.5235203504562378 2.499848365783691 -0.2597324848175049 2.819493293762207 -0.9509538412094116 3.273838043212891 C -1.300603866577148 3.503655433654785 -1.839582443237305 3.91306209564209 -2.047024726867676 4.365897178649902 C -1.562889337539673 5.233867645263672 -1.033874869346619 6.857902526855469 -0.7123337984085083 10.25419807434082 C -0.6039344072341919 11.39913177490234 -0.5435472726821899 12.48309803009033 -0.5100525617599487 13.30084037780762 C -0.1270616054534912 13.30726909637451 0.2844882011413574 13.31270980834961 0.6576775312423706 13.31457710266113 C 0.6664582490921021 13.25554466247559 0.6753764152526855 13.19564247131348 0.6844361424446106 13.13478755950928 C 0.9696961641311646 11.21890830993652 1.360366106033325 8.59501838684082 1.4481360912323 6.274168014526367 C 1.550944805145264 3.555717468261719 1.178595304489136 2.607692718505859 1.005401611328125 2.318493843078613 M 0.9622861742973328 0.7290077209472656 C 4.429336071014404 0.7290077209472656 2.447476148605347 11.16279792785645 1.963236212730408 14.77061748504639 C 1.944743990898132 14.80410575866699 1.501609086990356 14.81527137756348 0.9191061854362488 14.81527137756348 C -0.2460064888000488 14.81527137756348 -1.969013929367065 14.77061748504639 -1.969013929367065 14.77061748504639 C -1.969013929367065 14.77061748504639 -2.045613765716553 6.45938777923584 -3.632323741912842 4.704017639160156 C -3.606783866882324 2.05922794342041 0.9430561661720276 0.7945079803466797 0.9622861742973328 0.7290077209472656 Z" stroke="none" fill="rgba(0,0,0,0.84)"/>
        </g>
      </g>
      <g id="Group_8474" data-name="Group 8474" transform="translate(33.709 5.5)">
        <g id="Path_1966" data-name="Path 1966" transform="translate(5.569 9.443)" fill="none">
          <path d="M-3.632,4.174C-3.613,1.882-.125.786-.11.729c2.658,0,1.139,9.043.767,12.17-.043.087-3.015,0-3.015,0S-2.416,5.7-3.632,4.174Z" stroke="none"/>
          <path d="M -0.2977314591407776 2.452215194702148 C -0.6103888750076294 2.602611541748047 -0.9788135886192322 2.803332328796387 -1.313706040382385 3.052188873291016 C -1.596298694610596 3.262187004089355 -1.920625567436218 3.556045532226563 -2.06123423576355 3.877431869506836 C -1.67756712436676 4.664830207824707 -1.286803364753723 6.080488681793213 -1.043846130371094 8.981678009033203 C -0.968040406703949 9.886856079101563 -0.9228403568267822 10.74820804595947 -0.8959783315658569 11.43065547943115 C -0.8195961713790894 11.4318208694458 -0.7430316209793091 11.43287658691406 -0.6671692728996277 11.43378829956055 C -0.4576223492622375 9.842514038085938 -0.1742945909500122 7.679204940795898 -0.09516608715057373 5.7369384765625 C -0.01813375949859619 3.846114158630371 -0.1694184541702271 2.900498390197754 -0.2977314591407776 2.452215194702148 M -0.1100260615348816 0.729008674621582 C 2.547873973846436 0.729008674621582 1.028543949127197 9.771798133850098 0.657323956489563 12.89862823486328 C 0.6431448459625244 12.92765331268311 0.3034303188323975 12.93733024597168 -0.1431249380111694 12.93733024597168 C -1.036317229270935 12.93733024597168 -2.357196092605591 12.89862823486328 -2.357196092605591 12.89862823486328 C -2.357196092605591 12.89862823486328 -2.415925979614258 5.695428848266602 -3.632326126098633 4.174077987670898 C -3.612746000289917 1.881888389587402 -0.1247660517692566 0.7857780456542969 -0.1100260615348816 0.729008674621582 Z" stroke="none" fill="rgba(0,0,0,0.84)"/>
        </g>
        <path id="Union_400" data-name="Union 400" d="M0,4.327A3.847,3.847,0,0,1,3.173.54c1.354-.679,3.4-.938,6.3.563.008,0-.17.183-.433.495a13.487,13.487,0,0,1,4.36,2.43A5.167,5.167,0,0,1,7.653,3.8,3.845,3.845,0,1,1,0,4.327Z" transform="translate(0 0)" fill="none" stroke="rgba(0,0,0,0.84)" stroke-width="1.5"/>
      </g>
    </g>
  </g>
</svg>
