<svg xmlns="http://www.w3.org/2000/svg" width="12.405" height="47.939" viewBox="0 0 12.405 47.939">
  <g id="Group_8455" data-name="Group 8455" transform="translate(0.338 0.25)">
    <path id="Path_1949" data-name="Path 1949" d="M240.225,1.466a.784.784,0,0,0-.863.7l-.985,9.371a.786.786,0,0,0,.7.863.743.743,0,0,0,.082,0,.784.784,0,0,0,.78-.7l.985-9.372A.786.786,0,0,0,240.225,1.466Z" transform="translate(-229.116 -1.295)" fill="rgba(0,0,0,0.84)" stroke="#fff" stroke-width="0.5"/>
    <path id="Path_1950" data-name="Path 1950" d="M219.644,0a.784.784,0,0,0-.785.785v9.423a.785.785,0,0,0,1.57,0V.785A.784.784,0,0,0,219.644,0Z" transform="translate(-211.818)" fill="rgba(0,0,0,0.84)" stroke="#fff" stroke-width="0.5"/>
    <path id="Path_1951" data-name="Path 1951" d="M156.859,133.213l.732,1.39,6.309-3.321v30.762h1.57V129.982l-1.151-.695Z" transform="translate(-156.859 -114.605)" fill="rgba(0,0,0,0.84)" stroke="#fff" stroke-width="0.5"/>
  </g>
</svg>
