<svg xmlns="http://www.w3.org/2000/svg" width="47.318" height="34.565" viewBox="0 0 47.318 34.565"><path d="M40.2,7.979a5.559,5.559,0,0,0-2.287.343,4.188,4.188,0,0,0-3.736,1.709c-.09-.17-.181-.333-.27-.492C32.586,7.169,33.4,7.311,32.4,4.845a.693.693,0,1,0-1.285.519c.881,2.179.137,2.261,1.583,4.851a8.292,8.292,0,0,1,1.156,4.877,4.1,4.1,0,0,1-2.106,3.851,3.07,3.07,0,0,1-2.308.386c-.287-.551.033-3,.14-4.109a6.534,6.534,0,0,0-4.648-6.885c-2.373-.7-3.26-1.742-3.586-2.495a.693.693,0,0,0-1.3.071,7.6,7.6,0,0,1-1.424,2.547,6.565,6.565,0,0,0-1.767,5.11c.09.951.421,4.843.013,5.716a2.4,2.4,0,0,1-1.907-.232,3.767,3.767,0,0,1-1.817-3.439c-.205-4.069,2.117-5.411,2.438-8A6.181,6.181,0,0,1,17.857,3.23a5.183,5.183,0,0,1,4.276-.551.7.7,0,0,0,.678-.218,4.217,4.217,0,0,1,3.024-1.075,5.106,5.106,0,0,1,3.851,1.692A.693.693,0,1,0,30.7,2.13,6.527,6.527,0,0,0,25.835,0a5.807,5.807,0,0,0-3.751,1.251,6.343,6.343,0,0,0-5.021.843,7.3,7.3,0,0,0-2.854,5.348,8.352,8.352,0,0,1-1.111,2.67c-1.452-1.7-2.7-2.089-3.528-2.089a5.559,5.559,0,0,0-2.288.343A3.852,3.852,0,0,0,4.268,9.379C1.613,11.6-.121,16.937.006,19.452c.124,2.46,1.194,3.391,1.821,3.727a2.128,2.128,0,0,0,2.344-.125,6.05,6.05,0,0,0,2.119,1.4v1.875H4.368a2.058,2.058,0,0,0-2.055,2.056v3.9a.693.693,0,0,0,.693.693H5.914a.693.693,0,0,0,0-1.386H3.7V28.382a.67.67,0,0,1,.669-.669H11.24a1.9,1.9,0,0,0-.844,1.579v2.3H8.872a.693.693,0,0,0,0,1.386h1.551A1.9,1.9,0,0,0,12.3,34.565h2.97a1.89,1.89,0,0,0,.765-.161.69.69,0,0,0,.444.161H30.84a.689.689,0,0,0,.444-.161,1.893,1.893,0,0,0,.765.161h2.97A1.9,1.9,0,0,0,36.9,32.933h7.631a.693.693,0,0,0,.693-.693v-3.9a2.058,2.058,0,0,0-2.055-2.055H41.248V24.409a6.021,6.021,0,0,0,1.806-1.1,2.687,2.687,0,0,0,2.188-.247c1.873-1.014,2.075-3.213,2.075-4.111,0-3.933-3.587-10.974-7.116-10.974ZM33.8,19.09A20.233,20.233,0,0,1,33.809,22c-.806.266-1.458-.721-1.667-1.7A5.429,5.429,0,0,0,33.8,19.09ZM19.634,9.408a7.577,7.577,0,0,0,1.219-1.819,7.844,7.844,0,0,0,3.688,2.075A5.146,5.146,0,0,1,28.2,15.087a17.356,17.356,0,0,0-.172,4.387,6.309,6.309,0,0,1-9.608-1.034,31.32,31.32,0,0,0-.183-5,5.178,5.178,0,0,1,1.4-4.03Zm4.025,19.555-1.794-1.356h3.588Zm3.168-2.742H20.491V24.836h6.335ZM22.407,23.45v-.932a7.75,7.75,0,0,0,2.5,0v.934Zm-7.368-2.869a2.345,2.345,0,0,1-1.252,1.387,1.313,1.313,0,0,1-.834.106,13.213,13.213,0,0,1,.128-2.779,4.338,4.338,0,0,0,1.958,1.286ZM2.482,21.957a3,3,0,0,1-1.092-2.575c-.11-2.194,1.533-7.071,3.766-8.94a2.408,2.408,0,0,1,2.1-.672.693.693,0,0,0,.6-.143,4.21,4.21,0,0,1,1.709-.218c.823,0,1.858.76,2.87,2.1a9.464,9.464,0,0,0-.692,3.628,5.074,5.074,0,0,0-2.284-1.413,3.985,3.985,0,0,1-2.6-1.792.694.694,0,0,0-1.3.071,5.583,5.583,0,0,1-1.039,1.861,5.55,5.55,0,0,0-1.383,3.93c-.006,1.616.177,3.683.038,4.253a.907.907,0,0,1-.7-.088Zm2.134-.544c.015-.931-.095-2.273-.09-3.616a4.223,4.223,0,0,1,1.006-2.984,5.628,5.628,0,0,0,.841-1.2,6.374,6.374,0,0,0,2.7,1.444,3.725,3.725,0,0,1,2.647,3.925,14.546,14.546,0,0,0-.142,3.273,4.6,4.6,0,0,1-6.961-.837Zm4.614,3.4v1.518H7.676V24.808A5.911,5.911,0,0,0,9.231,24.809Zm1.386-.355a6.021,6.021,0,0,0,1.805-1.1,2.555,2.555,0,0,0,1.909-.112,3.831,3.831,0,0,0,2.105-2.47,2.06,2.06,0,0,0,1.549-.645,7.623,7.623,0,0,0,3.034,2.031V23.45H19.8a.693.693,0,0,0-.693.693v2.078h-.83a2.494,2.494,0,0,0-2.211,1.344,1.89,1.89,0,0,0-.8-.174h-.93a2.072,2.072,0,0,0-1.8-1.064H10.617Zm4.651,8.725H12.3a.516.516,0,0,1-.516-.515V29.292a.516.516,0,0,1,.516-.515h2.97a.516.516,0,0,1,.515.515v3.371A.516.516,0,0,1,15.268,33.178Zm14.879,0H17.17V28.712a1.107,1.107,0,0,1,1.105-1.105h1.29l3.4,2.57V31.2a.693.693,0,0,0,1.386,0V30.177l3.4-2.57h1.291a1.106,1.106,0,0,1,1.105,1.105Zm5.388-.515a.516.516,0,0,1-.516.515h-2.97a.516.516,0,0,1-.515-.515V29.292a.516.516,0,0,1,.515-.515h2.97a.516.516,0,0,1,.516.515Zm8.3-4.325v3.208H36.921V29.292a1.9,1.9,0,0,0-.911-1.623h7.161A.67.67,0,0,1,43.84,28.338ZM35,26.283a2.057,2.057,0,0,0-1.824,1.108H32.049a1.893,1.893,0,0,0-.8.174,2.493,2.493,0,0,0-2.211-1.344h-.83V24.143a.693.693,0,0,0-.693-.693H26.3v-1.3a7.718,7.718,0,0,0,2.569-1.561,3.341,3.341,0,0,0,1.954.14,3.426,3.426,0,0,0,1.714,2.444,2.119,2.119,0,0,0,2.27-.164,6.056,6.056,0,0,0,2.118,1.4v1.877Zm4.862,0H38.307V24.764a5.911,5.911,0,0,0,1.555,0Zm4.721-4.438a1.417,1.417,0,0,1-1,.187,3.083,3.083,0,0,1-.038-.939.693.693,0,0,0-1.384-.072,5.125,5.125,0,0,0,.041,1.19,4.6,4.6,0,0,1-6.957-.841c.007-.45-.014-.984-.04-1.611s-.053-1.314-.051-2a4.222,4.222,0,0,1,1.008-2.984,5.65,5.65,0,0,0,.84-1.2,6.374,6.374,0,0,0,2.7,1.444,3.707,3.707,0,0,1,2.642,3.161.693.693,0,0,0,1.378-.151,5.09,5.09,0,0,0-3.627-4.34,3.981,3.981,0,0,1-2.6-1.792.693.693,0,0,0-1.3.071,5.712,5.712,0,0,1-1,1.818,10.322,10.322,0,0,0-.408-2.3c.771-1.015,1.881-2.031,3.107-1.746a.693.693,0,0,0,.6-.143A4.206,4.206,0,0,1,40.2,9.366c1.068,0,2.495,1.3,3.724,3.381a13.648,13.648,0,0,1,2.006,6.206,3.182,3.182,0,0,1-1.349,2.891Zm0,0" transform="translate(0)"/></svg>