<svg xmlns="http://www.w3.org/2000/svg" width="34.563" height="56.897" viewBox="0 0 34.563 56.897"><g transform="translate(0)"><path d="M125.573,45.219a18.619,18.619,0,0,0,1.238-6.662,19.146,19.146,0,0,0-3.72-11.238v-12A13.579,13.579,0,0,0,110.437,1.783V.908a.908.908,0,1,0-1.816,0v.875A13.579,13.579,0,0,0,95.967,15.314c0,.019,0,.037,0,.056V27.319a19.147,19.147,0,0,0-3.72,11.238,18.621,18.621,0,0,0,1.235,6.653c.006.018.013.037.02.055a20.17,20.17,0,0,0,2.644,4.776.908.908,0,0,0,1.458,0,20.171,20.171,0,0,0,2.648-4.787l.014-.036a18.619,18.619,0,0,0,1.238-6.661,19.147,19.147,0,0,0-3.72-11.239v-5.23a13.578,13.578,0,0,0,10.838,6.757v4.963a19.147,19.147,0,0,0-3.72,11.239,18.621,18.621,0,0,0,1.229,6.637.9.9,0,0,0,.038.1,20.177,20.177,0,0,0,2.633,4.749.908.908,0,0,0,1.458,0,20.168,20.168,0,0,0,2.646-4.783c.006-.014.011-.028.016-.043a18.62,18.62,0,0,0,1.237-6.659,19.146,19.146,0,0,0-3.72-11.238V28.845a13.578,13.578,0,0,0,10.838-6.758v5.231a19.146,19.146,0,0,0-3.72,11.239,18.62,18.62,0,0,0,1.235,6.653q.01.028.021.056a20.173,20.173,0,0,0,2.643,4.776.908.908,0,0,0,1.458,0,20.168,20.168,0,0,0,2.648-4.787ZM95.35,44.988l1.526-2.642L98.4,44.988a18.165,18.165,0,0,1-1.526,2.918A18.166,18.166,0,0,1,95.35,44.988Zm3.817-2.305-1.5-2.607a.908.908,0,0,0-1.573,0l-1.5,2.607a16.682,16.682,0,0,1-.521-4.126,16.989,16.989,0,0,1,1.9-7.772V36.9a.908.908,0,1,0,1.816,0V30.785a16.991,16.991,0,0,1,1.9,7.772A16.688,16.688,0,0,1,99.167,42.683Zm15.851-29a21.344,21.344,0,0,0-1.805-2.055l-.079-.078a.908.908,0,1,0-1.276,1.292l.071.071a19.528,19.528,0,0,1,2.036,2.4,19.141,19.141,0,0,1-4.439,4.439,19.53,19.53,0,0,1-2.4-2.036l-.071-.071a.908.908,0,0,0-1.292,1.276l.078.079A21.359,21.359,0,0,0,107.9,20.8a20.733,20.733,0,0,1-6.2,2.339A19.754,19.754,0,0,1,117.358,7.486,20.74,20.74,0,0,1,115.018,13.685Zm-10.979,0a20.575,20.575,0,0,1-2.339-6.2,20.577,20.577,0,0,1,6.2,2.339,21.1,21.1,0,0,0-3.863,3.864Zm5.492-5a22.159,22.159,0,0,0-6.917-2.861,11.72,11.72,0,0,1,13.832,0A22.321,22.321,0,0,0,109.531,8.686ZM97.784,15.314s0-.008,0-.011a11.683,11.683,0,0,1,2.257-6.9,22.159,22.159,0,0,0,2.861,6.917,22.322,22.322,0,0,0-2.86,6.915,11.683,11.683,0,0,1-2.258-6.861v-.056ZM108,51.477l1.526-2.642,1.526,2.643a18.16,18.16,0,0,1-1.526,2.917A18.185,18.185,0,0,1,108,51.477Zm3.817-2.3-1.505-2.607a.908.908,0,0,0-1.573,0l-1.505,2.606a16.683,16.683,0,0,1-.521-4.125,16.991,16.991,0,0,1,1.9-7.772v6.114a.908.908,0,0,0,1.816,0V37.274a16.99,16.99,0,0,1,1.9,7.772A16.678,16.678,0,0,1,111.82,49.173Zm7.194-26.94a22.946,22.946,0,0,0-1.2-3.73.908.908,0,0,0-1.674.7,21.241,21.241,0,0,1,1.213,3.936,21.238,21.238,0,0,1-3.937-1.213.908.908,0,1,0-.7,1.674,29.21,29.21,0,0,0,3.818,1.133,11.721,11.721,0,0,1-13.924.065,21.8,21.8,0,0,0,10.6-5.8,21.8,21.8,0,0,0,5.8-10.6,11.719,11.719,0,0,1,0,13.836Zm.356,16.324a16.991,16.991,0,0,1,1.9-7.772V36.9a.908.908,0,1,0,1.816,0V30.785a16.991,16.991,0,0,1,1.9,7.772,16.683,16.683,0,0,1-.521,4.126l-1.5-2.607a.908.908,0,0,0-1.573,0l-1.505,2.607A16.676,16.676,0,0,1,119.371,38.557Zm1.287,6.431,1.526-2.642,1.526,2.642a18.157,18.157,0,0,1-1.526,2.918A18.175,18.175,0,0,1,120.657,44.988Z" transform="translate(-92.248)"/></g></svg>