<svg xmlns="http://www.w3.org/2000/svg" width="46.28" height="47.377" viewBox="0 0 46.28 47.377"><g transform="translate(4.292)"><path d="M66.913,7.129a.7.7,0,0,0-.7.7V10.68a5.194,5.194,0,0,1-10.339.713.7.7,0,0,0-.464-.568,1.2,1.2,0,0,1-.453-1.979,1.183,1.183,0,0,1,.417-.272,1.2,1.2,0,0,1,1.278.271l.006.006h0l.023.021h0a.7.7,0,0,0,.493.176h.077a.7.7,0,0,0,.394-.2h0a.7.7,0,0,0,.088-.108h0a.7.7,0,0,0,.112-.394,3.21,3.21,0,0,1,.44-1.233,4.316,4.316,0,0,1,1.532-1.59c1.656-.982,3.992-.7,6.755.806A.7.7,0,0,0,67.615,5.7,5.1,5.1,0,0,0,66.24,1.9C64.969.62,62.882,0,59.861,0c-3,0-5.151.76-6.394,2.26a6,6,0,0,0-1,5.153.7.7,0,1,0,1.383-.26,4.68,4.68,0,0,1,.7-3.994C55.513,2,57.3,1.407,59.861,1.407c4.8,0,5.969,1.718,6.256,3.112C63.994,3.565,61.345,2.972,59.1,4.3a5.826,5.826,0,0,0-2.43,2.935,2.605,2.605,0,0,0-1.806.022,2.605,2.605,0,0,0-.909,4.275,2.607,2.607,0,0,0,.584.44A6.6,6.6,0,0,0,67.617,10.68V7.833A.7.7,0,0,0,66.913,7.129Z" transform="translate(-52.306 0)"/></g><g transform="translate(0 5.577)"><path d="M10.4,64.178a.7.7,0,0,0-.952.289,26.572,26.572,0,0,1-1.91,3.016c-.572-3.3.042-5.4,1.752-5.829a.7.7,0,0,0-.346-1.364,3.76,3.76,0,0,0-2.723,2.76,12.083,12.083,0,0,0,.264,6.238.7.7,0,0,0,1.221.282,28.721,28.721,0,0,0,2.983-4.44A.7.7,0,0,0,10.4,64.178Z" transform="translate(-5.927 -60.269)"/></g><g transform="translate(4.926 16.843)"><path d="M63.822,182.118a.7.7,0,0,0-.959.265,32.224,32.224,0,0,0-3.7,13.087.7.7,0,0,0,.641.761l.061,0a.7.7,0,0,0,.7-.644,30.8,30.8,0,0,1,3.522-12.513A.7.7,0,0,0,63.822,182.118Z" transform="translate(-59.161 -182.027)"/></g><g transform="translate(4.764 16.843)"><path d="M92.789,182.383a.7.7,0,1,0-1.224.694c1.347,2.375,3.587,7.551,3.679,15.8a26.423,26.423,0,0,1-11.792.188,105.233,105.233,0,0,0,3.975-15.686.7.7,0,1,0-1.393-.2c-.159,1.128-.378,2.32-.632,3.525a3.132,3.132,0,0,1-1.423,1.537,2.851,2.851,0,0,1-2.529.095,18.3,18.3,0,0,1-2.048-1.084.7.7,0,0,0-.065-.035,3.463,3.463,0,0,0-2.7-.181,3.461,3.461,0,0,0-2.7.181.705.705,0,0,0-.065.035,14.626,14.626,0,0,1-4.635,1.941c-.493-2.023-.932-4.11-1.2-6.014a.7.7,0,0,0-1.393.2c.271,1.923.71,4.015,1.188,6a6.167,6.167,0,0,1-2.3-.306,4.029,4.029,0,0,1-2.528-2.428.7.7,0,0,0-1.322.481,5.412,5.412,0,0,0,3.385,3.274,7.324,7.324,0,0,0,2.433.394c.224,0,.452-.011.683-.028.326,1.272.657,2.465.955,3.495.612,2.116,1.175,3.867,1.486,4.809a26.543,26.543,0,0,1-11.792-.189c.005-.484.018-.966.038-1.439a.7.7,0,0,0-1.406-.06c-.028.664-.043,1.344-.043,2.023a.7.7,0,0,0,.471.664,19.947,19.947,0,0,0,4.212.833,16.708,16.708,0,0,1-1.838,10.619.7.7,0,0,0,.618,1.04h2.439a.7.7,0,1,0,0-1.407h-1.3a18.078,18.078,0,0,0,1.515-10.142c.455.023.933.036,1.433.036.551,0,1.129-.016,1.73-.052a16.7,16.7,0,0,1-1.852,10.526.7.7,0,0,0,.618,1.04H67.9a.7.7,0,1,0,0-1.407H66.6a18.1,18.1,0,0,0,1.5-10.274,30.627,30.627,0,0,0,3.588-.6.7.7,0,0,0,.508-.915c-.021-.061-1.4-4.093-2.621-8.8a16.3,16.3,0,0,0,4.991-2.081,2.382,2.382,0,0,1,.6-.187.7.7,0,0,0,1.2.5,1.722,1.722,0,0,1,.27-.2,1.774,1.774,0,0,1,.273.2.7.7,0,0,0,1.2-.5,2.391,2.391,0,0,1,.6.187,19.656,19.656,0,0,0,2.173,1.147,4.248,4.248,0,0,0,3.77-.14c.047-.025.092-.052.138-.079-1.276,5.181-2.89,9.888-2.913,9.954a.7.7,0,0,0,.508.915,30.642,30.642,0,0,0,3.588.6,18.1,18.1,0,0,0,1.5,10.274h-1.3a.7.7,0,0,0,0,1.407H88.6a.7.7,0,0,0,.618-1.04,16.7,16.7,0,0,1-1.852-10.526c.6.035,1.179.052,1.73.052.5,0,.977-.013,1.432-.036a18.078,18.078,0,0,0,1.515,10.142h-1.3a.7.7,0,1,0,0,1.407H93.19a.7.7,0,0,0,.618-1.04,16.709,16.709,0,0,1-1.838-10.62,19.952,19.952,0,0,0,4.212-.833.7.7,0,0,0,.471-.664C96.654,190.524,94.233,184.928,92.789,182.383Z" transform="translate(-57.411 -182.026)"/></g><g transform="translate(42.143 2.06)"><path d="M465.354,28.53a9.6,9.6,0,0,0-2.812-6.083.7.7,0,1,0-.941,1.047,8.28,8.28,0,0,1,2.359,5.233c.673,4.77-1.28,9.392-2.5,11.723a.7.7,0,1,0,1.246.654C464.005,38.622,466.082,33.69,465.354,28.53Z" transform="translate(-461.368 -22.266)"/></g><g transform="translate(28.991)"><path d="M333.073,7.85a2.579,2.579,0,0,0-.908-.591,2.605,2.605,0,0,0-1.577-.092V6.639a.705.705,0,0,0-.938-.663,4.836,4.836,0,0,1-5.328-1.642.7.7,0,0,0-1.055-.068,4.49,4.49,0,0,1-2.576.728,3.128,3.128,0,0,1,.48-2.329c.639-.834,1.859-1.257,3.625-1.257a15.823,15.823,0,0,1,6.258.874A.7.7,0,0,0,331.626,1a16.947,16.947,0,0,0-6.83-1c-2.228,0-3.823.609-4.742,1.809a4.771,4.771,0,0,0-.615,4.076.7.7,0,0,0,.654.52,7.8,7.8,0,0,0,3.559-.691,6.206,6.206,0,0,0,5.53,1.821v.813a.7.7,0,0,0,1.2.5,1.2,1.2,0,0,1,1.279-.271,1.2,1.2,0,0,1,.415,1.965,1.2,1.2,0,0,1-.453.286.7.7,0,0,0-.464.568,5.194,5.194,0,0,1-10.339-.713V7.833a.7.7,0,0,0-1.407,0V10.68a6.6,6.6,0,0,0,13.075,1.294,2.606,2.606,0,0,0,.584-4.124Z" transform="translate(-319.237)"/></g><g transform="translate(33.706 20.571)"><path d="M375.2,222.6a.7.7,0,0,0-1.148.814,22.755,22.755,0,0,1,1.432,2.371c1.117,2.152,1.105,3.132,1,3.524a.634.634,0,0,1-.384.452c-.846.38-1.415-.055-2.275-.8a2.935,2.935,0,0,0-2.066-1.011,2.066,2.066,0,0,0-1.415.845.7.7,0,1,0,1.081.9.863.863,0,0,1,.449-.343c.229-.019.655.349,1.031.674a4.118,4.118,0,0,0,2.6,1.28,2.826,2.826,0,0,0,1.169-.265,2.04,2.04,0,0,0,1.164-1.366C378.485,227.324,375.541,223.08,375.2,222.6Z" transform="translate(-370.183 -222.307)"/></g></svg>