<svg xmlns="http://www.w3.org/2000/svg" width="39.779" height="50.288" viewBox="0 0 39.779 50.288"><g transform="translate(-53.502)"><g transform="translate(59.395 4.42)"><path d="M126.762,49.42h-.053a5.156,5.156,0,0,0-10.206,0h-.053a2.947,2.947,0,0,0,0,5.893h10.313a2.947,2.947,0,1,0,0-5.893Zm-5.157-2.947a3.689,3.689,0,0,1,3.6,2.905,8.013,8.013,0,0,1-5.137-2.568A3.661,3.661,0,0,1,121.605,46.473Zm-5.157,7.366a1.473,1.473,0,1,1,0-2.947h.053A5.146,5.146,0,0,0,118,53.84Zm5.157,0a3.681,3.681,0,0,1-2.731-6.152,9.474,9.474,0,0,0,6.346,3.172A3.689,3.689,0,0,1,121.605,53.84Zm5.157,0h-1.553a5.146,5.146,0,0,0,1.5-2.947h.053a1.473,1.473,0,1,1,0,2.947Z" transform="translate(-113.502 -45)"/></g><g transform="translate(53.502)"><g transform="translate(0)"><path d="M92.544,2.947H87.388V2.21A2.212,2.212,0,0,0,85.178,0H77.811a.737.737,0,0,0-.737.737V18.171H72.552a2.705,2.705,0,0,0-2.6-1.964H65.043a2.705,2.705,0,0,0-2.591,1.938,8.112,8.112,0,0,1-7.477-8.076.737.737,0,0,0-1.473,0,9.589,9.589,0,0,0,8.84,9.548v5.9a6.774,6.774,0,0,0-1.358,2.928c-.3,1.49-1.261,5.981-1.271,6.026a.737.737,0,0,0,.72.891H60.7L58.025,48l-2.546.849a.737.737,0,1,0,.466,1.4l2.947-.982a.737.737,0,0,0,.488-.547L62.2,35.359H72.794l2.823,13.363a.736.736,0,0,0,.488.547l2.947.982a.737.737,0,1,0,.466-1.4L76.971,48,74.3,35.359h.263a.737.737,0,0,0,.72-.891c-.01-.045-.974-4.536-1.271-6.026a6.775,6.775,0,0,0-1.358-2.928v-5.87h4.42v6.139a.737.737,0,1,0,1.473,0V19.644h.737a2.21,2.21,0,0,0,0-4.42h-.737V8.84h2.947v2.21a.737.737,0,0,0,.737.737H92.544a.737.737,0,0,0,.737-.737V3.683A.736.736,0,0,0,92.544,2.947ZM63.815,18.907a1.229,1.229,0,0,1,1.228-1.228h1.719v3.682a.737.737,0,0,0,1.473,0V17.679h1.719a1.229,1.229,0,0,1,1.228,1.228v6.139H68.235v-.738a.737.737,0,0,0-1.473,0v.738H63.815Zm9.837,14.978H61.345c.3-1.4.867-4.068,1.084-5.156a5.311,5.311,0,0,1,1-2.21h8.145a5.31,5.31,0,0,1,1,2.21C72.785,29.818,73.352,32.485,73.652,33.886Zm4.9-17.188h.737a.737.737,0,1,1,0,1.473h-.737Zm6.63-6.384h-2.21V8.84h2.21a.737.737,0,1,1,0,1.473Zm.737-2.82a2.2,2.2,0,0,0-.737-.127h-6.63V1.473h6.63a.737.737,0,0,1,.737.737Zm5.893,2.82H87.261a2.2,2.2,0,0,0,.127-.737V4.42h4.42Z" transform="translate(-53.502)"/></g></g></g></svg>