<svg xmlns="http://www.w3.org/2000/svg" width="45.479" height="41.701" viewBox="0 0 45.479 41.701"><g transform="translate(0 0)"><path d="M10.338,130.3v3.789h44.2v-4.179a6.858,6.858,0,0,0-5.342-6.688l-3.658-.829v-1.521a7.239,7.239,0,0,0,4.186-5.176,2.451,2.451,0,0,0,1.428-4.159v-5.624a6.545,6.545,0,0,0-6.339-6.332v-.006h-.014a2.275,2.275,0,0,0-1.743-.815h-.035a8.807,8.807,0,0,0-6.249,2.614,9.036,9.036,0,0,0-2.688,6.435v3.758a2.451,2.451,0,0,0,1.455,4.13,7.241,7.241,0,0,0,4.243,5.2v1.5l-3.658.829a6.887,6.887,0,0,0-3.217,1.727c.014-.158.022-.316.022-.475a5.589,5.589,0,0,0-2.119-4.393,1.8,1.8,0,0,1-.688-1.416v-9.372a9.181,9.181,0,0,0-2.745-6.558,9.072,9.072,0,0,0-15.457,6.456v9.431a1.8,1.8,0,0,1-.7,1.428,5.609,5.609,0,0,0-.577,8.33A6.253,6.253,0,0,0,10.338,130.3Zm20.44,2.868H11.259V130.3a5.238,5.238,0,0,1,4.1-5.136l3.954-.9V122.5a7.058,7.058,0,0,0,3.407-.013v1.782l3.954.9a5.266,5.266,0,0,1,2.546,1.389,11.255,11.255,0,0,1-5.139,1.246H13.134v.921H24.083a12.176,12.176,0,0,0,5.748-1.444,5.26,5.26,0,0,1,.947,3.025v2.868Zm-15.94-14.057a7.111,7.111,0,0,0,1.229,1.589v.9a9.785,9.785,0,0,0,.3,2.39l-1.131.256a8.865,8.865,0,0,1-.4-2.621Zm2.425,4.678a8.859,8.859,0,0,1-.275-2.187v-.146a7.066,7.066,0,0,0,1.406.75v1.327Zm9.725.041q-.037.221-.083.443l-.024-.006-1.218-.276a9.782,9.782,0,0,0,.3-2.388v-.946a7.114,7.114,0,0,0,1.184-1.545v2.843A11.43,11.43,0,0,1,26.987,123.827ZM25.038,121.6a8.862,8.862,0,0,1-.274,2.184l-1.121-.254v-1.349a7.063,7.063,0,0,0,1.395-.76v.178Zm24.812-6.873c.011-.163.018-.327.018-.491v-.191a1.976,1.976,0,0,0,1.063-.947,1.529,1.529,0,0,1-1.08,1.629Zm.377-8.817v6.3a1.039,1.039,0,0,1-.359.782v-.513a3.817,3.817,0,0,0-.664-2.156,2.909,2.909,0,0,1-.5-1.636v-.955a2.619,2.619,0,0,0-2.614-2.616l-1.059-.008a5.4,5.4,0,0,0,.3-1.77v-2.3a2.293,2.293,0,0,0-.054-.5A5.592,5.592,0,0,1,50.227,105.909ZM35,107.805a8.121,8.121,0,0,1,2.417-5.783,7.893,7.893,0,0,1,5.6-2.346h.033a1.356,1.356,0,0,1,1.355,1.357v2.3a4.446,4.446,0,0,1-4.45,4.45,4.569,4.569,0,0,0-4.569,4.568v.556a1.233,1.233,0,0,1-.387-.9v-4.205Zm-.684,5.455a1.526,1.526,0,0,1,.019-.229,2.147,2.147,0,0,0,1.052.963v.241c0,.164.007.328.018.491A1.534,1.534,0,0,1,34.316,113.26Zm2.3,2.942a6.287,6.287,0,0,1-.313-1.967v-1.881a3.649,3.649,0,0,1,3.648-3.647,5.35,5.35,0,0,0,4.65-2.682l1.476.011a1.7,1.7,0,0,1,1.7,1.7v.955a3.832,3.832,0,0,0,.663,2.155,2.9,2.9,0,0,1,.5,1.637v1.758A6.32,6.32,0,0,1,36.621,116.2Zm6.007,5.274a7.267,7.267,0,0,0,1.985-.276v1.279L42.656,123.5,40.7,122.479v-1.263A7.273,7.273,0,0,0,42.628,121.476Zm-6.3,2.641,3.852-.873,2.481,1.294,2.481-1.294,3.852.873a5.906,5.906,0,0,1,4.625,5.79v3.258H49.7v-2.684H48.78v2.684H36.418v-2.684H35.5v2.684H31.7v-3.258A5.906,5.906,0,0,1,36.324,124.117Zm-26.348.354a4.662,4.662,0,0,1,1.807-3.7,2.718,2.718,0,0,0,1.055-2.154v-9.431a8.139,8.139,0,0,1,13.887-5.8,8.266,8.266,0,0,1,2.472,5.9v9.372a2.719,2.719,0,0,0,1.035,2.136,4.692,4.692,0,0,1,.75,6.6,6.14,6.14,0,0,0-3.2-2.85c.04-.188.077-.377.108-.565a12.348,12.348,0,0,0,.168-2.026v-7.627a6.389,6.389,0,0,0-4.484-6.119l-.277.878a5.472,5.472,0,0,1,3.84,5.241v1.3a6.152,6.152,0,1,1-12.3,0h0v-1.175a5.242,5.242,0,0,1,2.988-4.722l.051-.024a6.163,6.163,0,0,0,3.573-5.582v-.788H20.53v.788a5.24,5.24,0,0,1-2.984,4.721l-.054.025a6.165,6.165,0,0,0-3.574,5.582v7.173a9.785,9.785,0,0,0,.433,2.879,6.142,6.142,0,0,0-3.317,2.93A4.7,4.7,0,0,1,9.976,124.472Z" transform="translate(-9.055 -92.385)"/><path d="M199.021,29.584a3.129,3.129,0,0,0-2.985,1.482,3.131,3.131,0,0,0-5.756,1.1,3.254,3.254,0,0,0-.044.467,3.051,3.051,0,0,0,.683,1.959l.6.757,3.616,3.93a1.156,1.156,0,0,0,.9.423h0a1.157,1.157,0,0,0,.9-.423l3.595-3.905.625-.782a3.051,3.051,0,0,0,.683-1.959,3.256,3.256,0,0,0-.044-.467A3.122,3.122,0,0,0,199.021,29.584Zm1.412,4.43-.594.745-3.593,3.9-.021.025a.242.242,0,0,1-.378,0l-3.615-3.928-.594-.744a2.13,2.13,0,0,1-.482-1.364,2.323,2.323,0,0,1,.032-.334,2.211,2.211,0,0,1,4.388.384v.633h.921V32.7a2.211,2.211,0,0,1,4.388-.384,2.35,2.35,0,0,1,.032.334A2.131,2.131,0,0,1,200.433,34.014Z" transform="translate(-173.551 -29.569)"/></g></svg>