<svg xmlns="http://www.w3.org/2000/svg" width="23.405" height="55.999" viewBox="0 0 23.405 55.999"><path d="M183.025,16.307a.82.82,0,0,0,.78,0c.348-.188,8.524-4.681,8.524-11.112a5.2,5.2,0,0,0-8.914-3.63A5.2,5.2,0,0,0,174.5,5.2C174.5,11.625,182.677,16.119,183.025,16.307ZM179.7,1.641a3.537,3.537,0,0,1,3.022,1.683.82.82,0,0,0,1.394,0A3.554,3.554,0,0,1,190.688,5.2c0,4.73-5.712,8.5-7.274,9.442-1.562-.941-7.272-4.7-7.273-9.442A3.559,3.559,0,0,1,179.7,1.641Z" transform="translate(-171.712 0)"/><path d="M169.946,167.187h-3.724A3.013,3.013,0,0,0,163.329,165H157.86a3.013,3.013,0,0,0-2.893,2.187h-3.505a2.461,2.461,0,1,0,0,4.922h3.391v3.255A7.373,7.373,0,0,0,153.212,180v5.505a.82.82,0,0,0,.82.82h2.461v14.119l-2.72.907a.82.82,0,1,0,.519,1.556l3.281-1.094a.82.82,0,0,0,.561-.778V186.327h5.14v14.711a.82.82,0,0,0,.561.778l3.281,1.094a.82.82,0,0,0,.519-1.556l-2.72-.907V186.327h2.242a.82.82,0,0,0,.82-.82V180a7.373,7.373,0,0,0-1.641-4.638v-3.255h3.609a2.461,2.461,0,0,0,0-4.922Zm-18.484,3.281a.82.82,0,1,1,0-1.641h3.391v1.641Zm14.875,14.218H154.852V180a5.732,5.732,0,0,1,1.207-3.518h9.069A5.732,5.732,0,0,1,166.336,180Zm-1.641-9.843h-8.2v-2.734h.273a3.011,3.011,0,0,0,3.008-3.008.82.82,0,1,0-1.641,0,1.369,1.369,0,0,1-1.367,1.367h-.273v-2.461a1.369,1.369,0,0,1,1.367-1.367h5.469a1.369,1.369,0,0,1,1.367,1.367v2.461h-.055a1.369,1.369,0,0,1-1.367-1.367.82.82,0,1,0-1.641,0,3.011,3.011,0,0,0,3.008,3.008h.055Zm5.25-4.375h-3.609v-1.641h3.609a.82.82,0,0,1,0,1.641Z" transform="translate(-149.001 -146.954)"/><ellipse cx="0.82" cy="0.82" rx="0.82" ry="0.82" transform="translate(10.773 34.452)"/><ellipse cx="0.82" cy="0.82" rx="0.82" ry="0.82" transform="translate(10.773 31.171)"/></svg>