<svg xmlns="http://www.w3.org/2000/svg" width="38.628" height="41.387" viewBox="0 0 38.628 41.387"><g transform="translate(-4 -2)"><path d="M27.069,39.69a.69.69,0,0,1-.69-.69H25a2.069,2.069,0,1,0,4.139,0h-1.38A.69.69,0,0,1,27.069,39.69Z" transform="translate(63.004 36.724) rotate(135)"/><path d="M37.139,39h-1.38a.69.69,0,0,1-1.38,0H33a2.069,2.069,0,0,0,4.139,0Z" transform="translate(13.937 77.945) rotate(-120)"/><path d="M40.959,44.485H38.8a.69.69,0,0,0-.69-.69H35.18a12.77,12.77,0,0,1-4.795-.935,6.188,6.188,0,0,0-2.306-.444h-.335a6.9,6.9,0,1,0-8.242,0h-.335a6.277,6.277,0,0,0-2.365.468,12.685,12.685,0,0,1-4.736.912H9.139a.69.69,0,0,0-.69.69H6.381a1.38,1.38,0,0,0-1.147,2.147l.05.074a2.754,2.754,0,0,0,2.3,1.229h.87a.69.69,0,0,0,.69.69h3.337a14.1,14.1,0,0,0,3.561-.456v3.9h1.38V47.245a.689.689,0,0,0-.908-.655,12.723,12.723,0,0,1-4.032.655H9.829V45.175h2.24a14.148,14.148,0,0,0,5.306-1.034,4.817,4.817,0,0,1,1.793-.346h3.237l-1.442,2.4a.69.69,0,0,0-.026.664L23.007,51a.69.69,0,0,0,1.235,0l2.069-4.139a.69.69,0,0,0-.026-.664l-1.443-2.4H28.08a4.9,4.9,0,0,1,1.852.369,14.07,14.07,0,0,0,5.249,1.011h2.24v2.069H34.773a12.741,12.741,0,0,1-4.032-.654.689.689,0,0,0-.908.654v4.828h1.38v-3.9a14.1,14.1,0,0,0,3.561.456H38.11a.69.69,0,0,0,.69-.69h.962a2.756,2.756,0,0,0,2.3-1.229l.05-.074a1.38,1.38,0,0,0-1.148-2.146ZM7.579,46.555a1.377,1.377,0,0,1-1.148-.616l-.05-.074H8.449v.69ZM23.624,31.38a5.513,5.513,0,0,1,4.51,2.348,10.985,10.985,0,0,0-9.02,0A5.513,5.513,0,0,1,23.624,31.38ZM18.106,36.9a5.516,5.516,0,0,1,.109-1.091,9.6,9.6,0,0,1,10.819,0A5.518,5.518,0,1,1,18.106,36.9Zm5.518,12.253-1.283-2.566,1.283-2.139,1.283,2.139ZM40.91,45.94a1.377,1.377,0,0,1-1.148.615H38.8v-.69h2.16Z" transform="translate(-0.311 -8.686)"/><path d="M35.865,29.66a11.036,11.036,0,1,0-17.658,0l1.1-.828a9.657,9.657,0,1,1,15.452,0Z" transform="translate(-3.723 -3.102)"/><path d="M6,19.934a17.8,17.8,0,0,0,7.172,14.347l.828-1.1A16.555,16.555,0,1,1,40.489,19.934,16.431,16.431,0,0,1,33.867,33.18l.828,1.1A17.935,17.935,0,1,0,6,19.934Z" transform="translate(-0.62)"/><path d="M29.492,24.277c.009,0,.017.006.026.006l.012,0,.029,0a.675.675,0,0,0,.1-.019l.979-.108a4.8,4.8,0,0,0,4.265-4.265l.124-1.1a.688.688,0,0,0-.2-.565.681.681,0,0,0-.566-.2l-1.094.124a4.774,4.774,0,0,0-1.61.485,4.856,4.856,0,0,0-.817-1.512l-.69-.864a.713.713,0,0,0-1.077,0l-.69.864a4.842,4.842,0,0,0-.817,1.512,4.787,4.787,0,0,0-1.608-.484l-1.1-.125a.681.681,0,0,0-.566.2.688.688,0,0,0-.2.565l.124,1.1a4.8,4.8,0,0,0,4.266,4.266l1.006.112.055.006h0a.314.314,0,0,0,.036,0Zm3.836-4.751.236-.026-.027.237a3.429,3.429,0,0,1-2.459,2.931,4.791,4.791,0,0,0,.73-2.583A3.388,3.388,0,0,1,33.328,19.526ZM29.366,17.99l.152-.19.152.19a3.429,3.429,0,0,1,0,4.308l-.152.19-.152-.19A3.431,3.431,0,0,1,29.366,17.99ZM25.5,19.735l-.027-.236.238.027a3.388,3.388,0,0,1,1.518.559,4.8,4.8,0,0,0,.73,2.582A3.427,3.427,0,0,1,25.5,19.735Z" transform="translate(-6.205 -4.349)"/><path d="M58,47h1.38v1.38H58Z" transform="translate(-16.752 -13.96)"/><path d="M4,47H5.38v1.38H4Z" transform="translate(0 -13.96)"/></g></svg>