<svg xmlns="http://www.w3.org/2000/svg" width="40.046" height="40.046" viewBox="0 0 40.046 40.046"><g transform="translate(-0.001)"><path d="M49.52,9.237v2.495H48.346a1.173,1.173,0,1,0,0,2.346H49.52V15.33a1.173,1.173,0,0,0,2.346,0V14.079h1.173a1.173,1.173,0,1,0,0-2.346H51.866V9.237a4.693,4.693,0,1,0-2.346,0Zm1.173-6.891a2.346,2.346,0,1,1-2.346,2.346A2.349,2.349,0,0,1,50.693,2.346Z" transform="translate(-42.401)"/><path d="M31.834,0H22.37a1.173,1.173,0,0,0-1.049.649L18.974,5.341a1.174,1.174,0,0,0-.124.525v7.039a1.173,1.173,0,0,0,1.173,1.173h8.213V21.4a3.509,3.509,0,0,0-2.47.047,3.519,3.519,0,0,0-6.791,0A3.511,3.511,0,0,0,15.44,22,9.663,9.663,0,0,0,8.262,18.85h-.01C3.839,18.85.016,21.964,0,29.362A10.723,10.723,0,0,0,10.638,40.046H29.409A10.686,10.686,0,0,0,40.047,29.409V26.666A50.722,50.722,0,0,0,32.84.57,1.173,1.173,0,0,0,31.834,0ZM27.063,23.543a1.175,1.175,0,0,1,1.173,1.173v2.346a1.173,1.173,0,1,1-2.346,0V24.716A1.175,1.175,0,0,1,27.063,23.543ZM21.2,22.369a1.173,1.173,0,0,1,2.346,0v4.693a1.173,1.173,0,1,1-2.346,0Zm-3.52,1.173a1.175,1.175,0,0,1,1.173,1.173v2.346a1.173,1.173,0,1,1-2.346,0V24.716A1.175,1.175,0,0,1,17.677,23.543ZM37.7,29.409A8.3,8.3,0,0,1,29.409,37.7H10.638a8.378,8.378,0,0,1-8.291-8.333c.009-4.349,1.543-8.17,5.905-8.17H8.26a7.826,7.826,0,0,1,4.214,1.273,3.226,3.226,0,0,1,1.684,2.247v2.346a3.517,3.517,0,0,0,5.866,2.621,3.511,3.511,0,0,0,4.693,0,3.517,3.517,0,0,0,5.866-2.621V12.905a1.173,1.173,0,0,0-1.173-1.173H21.2V9.386h3.52a3.524,3.524,0,0,0,3.52-3.52,1.173,1.173,0,1,0-2.346,0,1.175,1.175,0,0,1-1.173,1.173H21.2v-.9l1.9-3.8h8.069A48.388,48.388,0,0,1,37.7,26.666Z" transform="translate(0 0)"/></g></svg>