<svg xmlns="http://www.w3.org/2000/svg" width="25.79" height="38.273" viewBox="0 0 25.79 38.273"><g transform="translate(0)"><path d="M15.137,26.956A.56.56,0,0,0,15.7,26.4V22.589a5.04,5.04,0,0,0-1.121-3.17V14.391a2.058,2.058,0,0,0-2.056-2.056H8.783a2.059,2.059,0,0,0-1.977,1.5H3.364V12.709H5.046a.561.561,0,1,0,0-1.121H4.485v-9.9a.561.561,0,0,0-.164-.4L3.2.165a.561.561,0,0,0-.793,0L1.285,1.286a.561.561,0,0,0-.164.4v9.9H.561a.561.561,0,1,0,0,1.121H2.243V13.83H1.682a1.682,1.682,0,1,0,0,3.364H2.8a.561.561,0,0,0,.561-.561V14.952H6.728v4.467a5.04,5.04,0,0,0-1.121,3.17V26.4a.561.561,0,0,0,.561.561,3.3,3.3,0,0,0,1.682-.463V36.562l-1.859.62a.561.561,0,1,0,.354,1.064L8.587,37.5a.561.561,0,0,0,.383-.532V26.494a3.289,3.289,0,0,0,3.364,0V36.966a.56.56,0,0,0,.383.532l2.243.748a.561.561,0,0,0,.355-1.064l-1.859-.62V26.494a3.3,3.3,0,0,0,1.682.463ZM2.243,1.915,2.8,1.355l.561.561v9.673H2.243Zm0,14.158H1.682a.561.561,0,1,1,0-1.121h.561Zm8.41,9.762a2.184,2.184,0,0,1-1.7-.815.56.56,0,0,0-1.087,0,2.186,2.186,0,0,1-1.139.745V22.589a3.918,3.918,0,0,1,.981-2.594.562.562,0,0,0,.14-.371V14.391a.935.935,0,0,1,.934-.934h3.738a.935.935,0,0,1,.934.934v5.233a.562.562,0,0,0,.14.371,3.918,3.918,0,0,1,.981,2.594v3.173a2.187,2.187,0,0,1-1.223-.854l-.009-.011-.026-.033-.016-.018-.028-.028-.017-.015c-.013-.011-.027-.022-.041-.032l-.007-.006a.606.606,0,0,0-.053-.032l-.013-.006-.044-.019-.018-.006-.042-.013-.019,0-.045-.008-.018,0a.558.558,0,0,0-.063,0,.577.577,0,0,0-.065,0l-.016,0-.047.009-.016,0-.046.014-.014.005-.048.022-.008,0a.561.561,0,0,0-.1.07l-.012.011c-.012.011-.023.022-.034.033l-.012.013c-.011.013-.022.026-.032.04l-.005.007a2.186,2.186,0,0,1-1.784.928Zm0,0" transform="translate(0 -0.001)"/><path d="M219.531,135h-8.97a.56.56,0,0,0-.561.561v6.1a5.8,5.8,0,0,0,2.475,4.877,7.333,7.333,0,0,0,2.449,1.152.557.557,0,0,0,.243,0,7.33,7.33,0,0,0,2.449-1.152,5.8,5.8,0,0,0,2.475-4.877v-6.1A.561.561,0,0,0,219.531,135Zm-.561,6.666a5.12,5.12,0,0,1-3.925,4.9,5.12,5.12,0,0,1-3.925-4.9v-5.544h7.849Zm0,0" transform="translate(-194.302 -124.908)"/><path d="M241.438,172.391a5.133,5.133,0,0,0,1.143.656.55.55,0,0,0,.058.021h.006l.047.012.018,0,.037.006.056,0,.056,0,.046-.007h.009a.574.574,0,0,0,.116-.037,5.206,5.206,0,0,0,1.032-.574,3.541,3.541,0,0,0,1.546-3.059v-3.862a.56.56,0,0,0-.561-.561H240.56a.56.56,0,0,0-.561.561v3.862A3.531,3.531,0,0,0,241.438,172.391Zm3.047-2.979a2.429,2.429,0,0,1-1.081,2.15l-.041.028v-5.48h1.121Zm-3.364-3.3h1.121v5.479c-.041-.028-.081-.056-.121-.087a2.415,2.415,0,0,1-1-2.09Zm0,0" transform="translate(-222.059 -152.655)"/><path d="M90,7.288a3.925,3.925,0,1,0,6.157-3.225,1.678,1.678,0,0,0,.57-1.261,2.8,2.8,0,0,0-5.606,0,1.678,1.678,0,0,0,.57,1.261A3.922,3.922,0,0,0,90,7.288Zm3.925,2.8a2.8,2.8,0,0,1-2.078-4.682,7.211,7.211,0,0,0,4.829,2.414A2.808,2.808,0,0,1,93.925,10.092Zm0-5.606A2.807,2.807,0,0,1,96.664,6.7a6.1,6.1,0,0,1-3.909-1.954,2.786,2.786,0,0,1,1.17-.257ZM92.8,3.364a.561.561,0,0,1-.561-.561,1.682,1.682,0,1,1,3.364,0,.561.561,0,0,1-.561.561Zm0,0" transform="translate(-83.272)"/></g></svg>