<svg xmlns="http://www.w3.org/2000/svg" width="38.078" height="31.178" viewBox="0 0 38.078 31.178">
  <g id="open-magazine" transform="translate(0 0)">
    <path id="Path_763" data-name="Path 763" d="M226.228,143.573V125.234a.614.614,0,1,0-1.228,0v18.339a.614.614,0,0,0,1.228,0Z" transform="translate(-206.575 -117.865)" fill="#818282"/>
    <path id="Path_764" data-name="Path 764" d="M37.464,44.882a15.936,15.936,0,0,1-4.629-1.153,22.238,22.238,0,0,0-7.179-1.6,7.337,7.337,0,0,0-6.617,3.551,7.337,7.337,0,0,0-6.617-3.551,22.238,22.238,0,0,0-7.179,1.6,15.938,15.938,0,0,1-4.63,1.153A.614.614,0,0,0,0,45.5V70.234a.614.614,0,0,0,.614.614,16.655,16.655,0,0,0,5.031-1.221,21.3,21.3,0,0,1,6.777-1.535,6.255,6.255,0,0,1,4.834,1.978.614.614,0,1,0,.907-.828,7.485,7.485,0,0,0-5.741-2.378,22.238,22.238,0,0,0-7.179,1.6,20.494,20.494,0,0,1-4.015,1.116V46.08a20.313,20.313,0,0,0,4.417-1.191,21.3,21.3,0,0,1,6.777-1.535,6.06,6.06,0,0,1,6.03,3.922.614.614,0,0,0,1.174,0,6.118,6.118,0,0,1,6.03-3.922,21.3,21.3,0,0,1,6.777,1.535,20.309,20.309,0,0,0,4.417,1.191v23.5a20.5,20.5,0,0,1-4.015-1.116,22.239,22.239,0,0,0-7.179-1.6,7.485,7.485,0,0,0-5.742,2.378.614.614,0,0,0,.907.828,6.254,6.254,0,0,1,4.835-1.978,21.3,21.3,0,0,1,6.777,1.535,16.656,16.656,0,0,0,5.031,1.221.614.614,0,0,0,.614-.614V45.5A.614.614,0,0,0,37.464,44.882Z" transform="translate(0 -42.126)" fill="#818282"/>
    <path id="Path_765" data-name="Path 765" d="M37.464,376.974a15.936,15.936,0,0,1-4.629-1.153,22.239,22.239,0,0,0-7.179-1.6A7.525,7.525,0,0,0,20.1,376.4h-2.13a7.525,7.525,0,0,0-5.552-2.178,22.238,22.238,0,0,0-7.179,1.6,15.936,15.936,0,0,1-4.629,1.153.614.614,0,1,0,0,1.228,16.656,16.656,0,0,0,5.031-1.221,21.3,21.3,0,0,1,6.777-1.535,6.255,6.255,0,0,1,4.834,1.978.614.614,0,0,0,.453.2h2.658a.614.614,0,0,0,.453-.2,6.254,6.254,0,0,1,4.835-1.978,21.3,21.3,0,0,1,6.777,1.535,16.657,16.657,0,0,0,5.031,1.221.614.614,0,0,0,0-1.228Z" transform="translate(0 -347.024)" fill="#818282"/>
  </g>
</svg>
