<svg width="80" height="92" viewBox="0 0 80 92" fill="none" xmlns="http://www.w3.org/2000/svg">
<path d="M39.6539 27.6442C41.7588 23.7892 43.5044 20.3963 45.4295 17.1085C48.9855 10.945 54.3122 5.99291 60.7182 2.895C69.8834 -1.5751 76.4141 1.72484 78.6016 11.6521C80.3106 19.4081 78.6545 26.701 75.0604 33.5162C65.3109 52.004 55.3717 70.3921 45.4814 88.8055C44.8783 89.6173 44.2026 90.3725 43.4626 91.0617C41.5822 89.8827 39.1969 89.0567 37.7931 87.3994C27.581 75.3419 17.0561 63.4934 7.68308 50.8013C2.15076 43.2221 -0.24368 33.8004 0.998694 24.4995C2.526 11.2238 12.5726 5.513 24.5113 11.7141C29.7447 14.4325 34.252 18.1336 37.1061 23.5105C37.7741 24.769 38.599 25.9439 39.6539 27.6442ZM41.5957 86.596C43.5045 83.201 44.6206 81.362 45.598 79.4524C50.0281 70.7968 54.2787 62.0461 58.8679 53.4764C62.6539 46.4064 67.0322 39.6514 70.765 32.5553C74.4466 25.5564 77.1126 18.243 73.543 10.2481C71.7752 6.28869 69.7501 5.02057 65.4731 5.88775C63.3409 6.3365 61.3086 7.1706 59.4759 8.34905C49.2994 14.9039 43.1592 24.072 41.7793 36.2658C41.6395 37.5007 40.8455 38.6614 40.0391 40.627C38.7723 39.0641 37.7636 38.3079 37.4404 37.326C36.6078 34.7962 36.2458 32.1104 35.3983 29.587C32.3584 20.5362 23.769 13.9144 15.3752 13.9964C9.16098 14.0571 5.54554 16.6769 4.79875 22.7707C3.97222 29.5153 3.75955 36.2984 7.2523 42.6802C16.1096 58.8643 29.5375 71.3152 41.5957 86.596Z" fill="#FF0404"/>
</svg>
