<svg width="100" height="125" viewBox="0 0 100 125" fill="none" xmlns="http://www.w3.org/2000/svg">
<path d="M49.6539 31.6442C51.7588 27.7892 53.5044 24.3963 55.4295 21.1085C58.9855 14.945 64.3122 9.99291 70.7182 6.895C79.8834 2.4249 86.4141 5.72484 88.6016 15.6521C90.3106 23.4081 88.6545 30.701 85.0604 37.5162C75.3109 56.004 65.3717 74.3921 55.4814 92.8055C54.8783 93.6173 54.2026 94.3725 53.4626 95.0617C51.5822 93.8827 49.1969 93.0567 47.7931 91.3994C37.581 79.3419 27.0561 67.4934 17.6831 54.8013C12.1508 47.2221 9.75632 37.8004 10.9987 28.4995C12.526 15.2238 22.5726 9.513 34.5113 15.7141C39.7447 18.4325 44.252 22.1336 47.1061 27.5105C47.7741 28.769 48.599 29.9439 49.6539 31.6442ZM51.5957 90.596C53.5045 87.201 54.6206 85.362 55.598 83.4524C60.0281 74.7968 64.2787 66.0461 68.8679 57.4764C72.6539 50.4064 77.0322 43.6514 80.765 36.5553C84.4466 29.5564 87.1126 22.243 83.543 14.2481C81.7752 10.2887 79.7501 9.02057 75.4731 9.88775C73.3409 10.3365 71.3086 11.1706 69.4759 12.3491C59.2994 18.9039 53.1592 28.072 51.7793 40.2658C51.6395 41.5007 50.8455 42.6614 50.0391 44.627C48.7723 43.0641 47.7636 42.3079 47.4404 41.326C46.6078 38.7962 46.2458 36.1104 45.3983 33.587C42.3584 24.5362 33.769 17.9144 25.3752 17.9964C19.161 18.0571 15.5455 20.6769 14.7988 26.7707C13.9722 33.5153 13.7596 40.2984 17.2523 46.6802C26.1096 62.8643 39.5375 75.3152 51.5957 90.596Z" fill="#FF0404"/>
</svg>
