<svg xmlns="http://www.w3.org/2000/svg" width="40.325" height="40.325" viewBox="0 0 40.325 40.325">
  <g id="logout" transform="translate(0 0)">
    <g id="Group_674" data-name="Group 674" transform="translate(0 0)">
      <g id="Group_673" data-name="Group 673" transform="translate(0 0)">
        <path id="Path_760" data-name="Path 760" d="M24.363,19.324a.84.84,0,0,0-.84.84V30.246H16.8V7.42a.838.838,0,0,0-.506-.77L4.878,1.682H23.523V11.763a.84.84,0,1,0,1.68,0V.842a.84.84,0,0,0-.84-.84H.84C.825,0,.813.01.8.01a.7.7,0,0,0-.1.02A.843.843,0,0,0,.433.121C.417.131.4.13.38.14S.354.173.336.187a.813.813,0,0,0-.185.2A.984.984,0,0,0,.092.474.829.829,0,0,0,0,.842V32.087a.841.841,0,0,0,.47.754l15.122,7.4a.845.845,0,0,0,.37.086.84.84,0,0,0,.84-.84V31.926h7.561a.84.84,0,0,0,.84-.84V20.165A.84.84,0,0,0,24.363,19.324ZM15.122,38.141,1.68,31.563V2.124L15.122,7.971Z" transform="translate(0 -0.002)" fill="#818282"/>
        <path id="Path_761" data-name="Path 761" d="M256.445,94.273a.86.86,0,0,0-.183-.276l-8.4-8.4a.84.84,0,0,0-1.188,1.188l6.966,6.966H235.506a.84.84,0,1,0,0,1.68h18.134l-6.966,6.966a.841.841,0,0,0,0,1.188.832.832,0,0,0,.593.247.844.844,0,0,0,.595-.245l8.4-8.4a.87.87,0,0,0,.183-.274A.834.834,0,0,0,256.445,94.273Z" transform="translate(-216.184 -78.63)" fill="#818282"/>
      </g>
    </g>
  </g>
</svg>
