<svg xmlns="http://www.w3.org/2000/svg" width="34.534" height="40.33" viewBox="0 0 34.534 40.33">
  <g id="login" transform="translate(-4)">
    <path id="Path_766" data-name="Path 766" d="M19.319,32.478a.719.719,0,1,0,1.017,1.017l8.633-8.633a.712.712,0,0,0,.156-.235.72.72,0,0,0,0-.55.735.735,0,0,0-.156-.235l-8.633-8.632a.719.719,0,0,0-1.017,1.017l7.405,7.405H4.719a.719.719,0,0,0,0,1.439H26.725Z" transform="translate(0 -4.188)" fill="#818282"/>
    <path id="Path_767" data-name="Path 767" d="M40.339,0H13.719A.719.719,0,0,0,13,.72V15.844a.719.719,0,1,0,1.439,0V1.44H39.62V38.89H14.439v-14.4a.719.719,0,1,0-1.439,0V39.61a.719.719,0,0,0,.719.72h26.62a.719.719,0,0,0,.719-.72V.72A.719.719,0,0,0,40.339,0Z" transform="translate(-2.525)" fill="#818282"/>
  </g>
</svg>
